<svg width="165" height="35" viewBox="0 0 165 35" fill="none" xmlns="http://www.w3.org/2000/svg">
  <!-- Icon with enlarged center star cut out -->
  <path fill-rule="evenodd" clip-rule="evenodd"
    d="M0.70092 11.8607C8.04663e-08 13.1412 0 14.6859 0 17.7753V19.8288C0 25.0948 1.60933e-07 27.728 1.58162 29.3639C3.16325 31 5.70883 31 10.8 31H16.2C21.2911 31 23.8368 31 25.4183 29.3639C27 27.728 27 25.0948 27 19.8288V17.7753C27 14.6859 27 13.1412 26.2991 11.8607C25.5982 10.5802 24.3177 9.78544 21.7566 8.19596L19.0566 6.52027C16.3493 4.84009 14.9957 4 13.5 4C12.0043 4 10.6507 4.84009 7.94344 6.52027L5.24344 8.19598C2.68238 9.78544 1.40184 10.5802 0.70092 11.8607Z
       M13.5 12.5 L14.8 15 H17.5 L15.6 16.6 L16.4 19.2 L13.5 17.7 L10.6 19.2 L11.4 16.6 L9.5 15 H12.2 L13.5 12.5 Z"
    fill="white"/>
  <!-- Brand text -->
  <text x="40" y="25" font-family="Arial, sans-serif" font-size="22" fill="white">StayEase</text>
</svg>

