<svg width="33" height="33" viewBox="0 0 33 33" fill="none" xmlns="http://www.w3.org/2000/svg">
  <!-- Blue house -->
  <path fill-rule="evenodd" clip-rule="evenodd" 
    d="M2.75284 10.443C2 11.8184 2 13.4775 2 16.7957V19.0013C2 24.6574 2 27.4856 3.69878 29.2427C5.39757 31 8.1317 31 13.6 31H19.4C24.8682 31 27.6025 31 29.3012 29.2427C31 27.4856 31 24.6574 31 19.0013V16.7957C31 13.4775 31 11.8184 30.2472 10.443C29.4943 9.0676 28.119 8.21399 25.3682 6.50677L22.4682 4.70696C19.5604 2.90232 18.1065 2 16.5 2C14.8935 2 13.4396 2.90232 10.5318 4.70696L7.63184 6.50679C4.88108 8.21399 3.50568 9.0676 2.75284 10.443Z" 
    fill="#85A4E1"/>

  <!-- Bigger black star -->
  <path d="M16.5 9.5 L18.1 12.4 H21 L18.8 14.2 L19.6 17 L16.5 15.4 L13.4 17 L14.2 14.2 L12 12.4 H14.9 L16.5 9.5 Z" fill="black"/>
</svg>
